<svg id="Layer_1" data-name="Layer 1" xmlns="http://www.w3.org/2000/svg" xmlns:xlink="http://www.w3.org/1999/xlink" viewBox="0 0 467.4 264"><defs><style>.cls-1{fill:#fff;}.cls-2{fill:url(#linear-gradient);}</style><linearGradient id="linear-gradient" x1="218" y1="203.2" x2="218" y2="60.8" gradientUnits="userSpaceOnUse"><stop offset="0" stop-color="#2821ff"/><stop offset="0.07" stop-color="#2b21ff"/><stop offset="0.12" stop-color="#3420fd"/><stop offset="0.16" stop-color="#441ffb"/><stop offset="0.2" stop-color="#5a1ef8"/><stop offset="0.23" stop-color="#771df5"/><stop offset="0.27" stop-color="#9a1bf0"/><stop offset="0.3" stop-color="#c318eb"/><stop offset="0.32" stop-color="#d917e8"/><stop offset="0.34" stop-color="#dc1adb"/><stop offset="0.38" stop-color="#e223b9"/><stop offset="0.44" stop-color="#ed3181"/><stop offset="0.5" stop-color="#fc4335"/><stop offset="0.51" stop-color="#ff4726"/><stop offset="0.65" stop-color="#f07d1c"/><stop offset="0.72" stop-color="#e89817"/><stop offset="0.76" stop-color="#efa810"/><stop offset="0.84" stop-color="#f8bc07"/><stop offset="0.92" stop-color="#fdc702"/><stop offset="1" stop-color="#ffcb00"/></linearGradient></defs><path class="cls-1" d="M173,60.8,151.8,203.2H132.6L117,110.8h-.4l-15.4,92.4H82L60.8,60.8H82.4l10.2,90.4H93l16-90.4h15.6l16.6,92.6h.4l9.8-92.6Z"/><path class="cls-2" d="M185,203.2V60.8h20.4v61h25.2v-61H251V203.2H230.6V139.8H205.4v63.4Z"/><path class="cls-1" d="M269.4,203.2V60.8h60.8V80H289.8v41.8H325V141H289.8v41.8h40.4v20.4Z"/><path class="cls-1" d="M362.6,203.2V80H339V60.8h67.6V80H383V203.2Z"/></svg>