<svg id="Layer_1" data-name="Layer 1" xmlns="http://www.w3.org/2000/svg" xmlns:xlink="http://www.w3.org/1999/xlink" viewBox="0 0 467.4 309.5"><defs><style>.cls-1{fill:#fff;}.cls-2{fill:url(#linear-gradient);}</style><linearGradient id="linear-gradient" x1="218" y1="203.2" x2="218" y2="60.8" gradientUnits="userSpaceOnUse"><stop offset="0" stop-color="#2821ff"/><stop offset="0.07" stop-color="#2b21ff"/><stop offset="0.12" stop-color="#3420fd"/><stop offset="0.16" stop-color="#441ffb"/><stop offset="0.2" stop-color="#5a1ef8"/><stop offset="0.23" stop-color="#771df5"/><stop offset="0.27" stop-color="#9a1bf0"/><stop offset="0.3" stop-color="#c318eb"/><stop offset="0.32" stop-color="#d917e8"/><stop offset="0.34" stop-color="#dc1adb"/><stop offset="0.38" stop-color="#e223b9"/><stop offset="0.44" stop-color="#ed3181"/><stop offset="0.5" stop-color="#fc4335"/><stop offset="0.51" stop-color="#ff4726"/><stop offset="0.65" stop-color="#f07d1c"/><stop offset="0.72" stop-color="#e89817"/><stop offset="0.76" stop-color="#efa810"/><stop offset="0.84" stop-color="#f8bc07"/><stop offset="0.92" stop-color="#fdc702"/><stop offset="1" stop-color="#ffcb00"/></linearGradient></defs><path class="cls-1" d="M173,60.8,151.8,203.2H132.6L117,110.8h-.4l-15.4,92.4H82L60.8,60.8H82.4l10.2,90.4H93l16-90.4h15.6l16.6,92.6h.4l9.8-92.6Z"/><path class="cls-2" d="M185,203.2V60.8h20.4v61h25.2v-61H251V203.2H230.6V139.8H205.4v63.4Z"/><path class="cls-1" d="M269.4,203.2V60.8h60.8V80H289.8v41.8H325V141H289.8v41.8h40.4v20.4Z"/><path class="cls-1" d="M362.6,203.2V80H339V60.8h67.6V80H383V203.2Z"/><path class="cls-1" d="M80.42,223.59,76.81,247.8H73.55L70.9,232.09h-.07L68.21,247.8H65l-3.61-24.21H65L66.75,239h.07l2.72-15.37h2.65L75,239.34h.07l1.67-15.75Z"/><path class="cls-1" d="M81.13,236.34a12.91,12.91,0,0,1,.14-1.94A4.6,4.6,0,0,1,83.53,231a6,6,0,0,1,5.54,0,4.6,4.6,0,0,1,2.26,3.36,12.91,12.91,0,0,1,.14,1.94V242a12.91,12.91,0,0,1-.14,1.94,4.6,4.6,0,0,1-2.26,3.36,5.91,5.91,0,0,1-5.54,0A4.6,4.6,0,0,1,81.27,244a12.91,12.91,0,0,1-.14-1.94Zm3.47,6.22a2.08,2.08,0,0,0,.46,1.48,1.79,1.79,0,0,0,2.48,0,2.08,2.08,0,0,0,.46-1.48V235.8a2.08,2.08,0,0,0-.46-1.48,1.81,1.81,0,0,0-2.48,0,2.08,2.08,0,0,0-.46,1.48Z"/><path class="cls-1" d="M93.68,247.8V230.56h3.47v1.84a10.54,10.54,0,0,1,2.07-1.5,5.34,5.34,0,0,1,2.52-.54V234a2.77,2.77,0,0,0-1.06-.2,4.28,4.28,0,0,0-1.17.18,3.2,3.2,0,0,0-1.14.63,3.25,3.25,0,0,0-.88,1.16,4,4,0,0,0-.34,1.77V247.8Z"/><path class="cls-1" d="M102.59,223.59h3.46v19.35a1.89,1.89,0,0,0,.36,1.34,2.26,2.26,0,0,0,1.34.46V248a11.58,11.58,0,0,1-2.14-.19,3.8,3.8,0,0,1-1.63-.73,3.18,3.18,0,0,1-1-1.45,7,7,0,0,1-.35-2.46Z"/><path class="cls-1" d="M115.68,247.8v-1.56l-.65.69a3,3,0,0,1-.68.56,3.14,3.14,0,0,1-.85.38,4.13,4.13,0,0,1-1.12.14,3.12,3.12,0,0,1-3-1.64,4.64,4.64,0,0,1-.44-1.43,14.93,14.93,0,0,1-.14-2.27V236.1a25.52,25.52,0,0,1,.11-2.75,3.27,3.27,0,0,1,1.59-2.55,3.5,3.5,0,0,1,1.94-.44,3.54,3.54,0,0,1,1.82.46,4.18,4.18,0,0,1,1.38,1.31h.07v-8.54h3.46V247.8Zm-3.44-5.61a3.17,3.17,0,0,0,.41,1.7,1.41,1.41,0,0,0,1.29.65,1.54,1.54,0,0,0,1.26-.6,2.37,2.37,0,0,0,.48-1.55V235.7a1.91,1.91,0,0,0-.5-1.35,1.62,1.62,0,0,0-1.24-.52,1.41,1.41,0,0,0-1.34.61,2.76,2.76,0,0,0-.36,1.43Z"/><path class="cls-1" d="M127.85,247.8V223.59h3.46V234h4.29V223.59h3.47V247.8H135.6V237h-4.29V247.8Z"/><path class="cls-1" d="M151.82,240.49H145v2.35a1.63,1.63,0,0,0,.46,1.25,1.69,1.69,0,0,0,1.24.45A1.38,1.38,0,0,0,148,244a3.32,3.32,0,0,0,.39-1.16h3.47a4.94,4.94,0,0,1-1.4,3.67,4.86,4.86,0,0,1-1.63,1.13,5.41,5.41,0,0,1-2.14.41,5.25,5.25,0,0,1-2.77-.69,4.6,4.6,0,0,1-2.26-3.36,12.91,12.91,0,0,1-.14-1.94v-5.68a12.91,12.91,0,0,1,.14-1.94,4.7,4.7,0,0,1,.51-1.56,4.58,4.58,0,0,1,1.75-1.8,5.34,5.34,0,0,1,2.77-.68,5.4,5.4,0,0,1,2.16.41,4.87,4.87,0,0,1,1.65,1.12,5.6,5.6,0,0,1,1.36,3.84ZM145,237.77h3.4v-2a2.08,2.08,0,0,0-.46-1.48,1.81,1.81,0,0,0-2.48,0,2.08,2.08,0,0,0-.46,1.48Z"/><path class="cls-1" d="M160.59,247.8V246h-.07a6.1,6.1,0,0,1-1.38,1.46,3.16,3.16,0,0,1-1.95.52,4.5,4.5,0,0,1-1.24-.19,3.45,3.45,0,0,1-2.15-2.08,6.57,6.57,0,0,1-.35-2.33,12.11,12.11,0,0,1,.24-2.56,4,4,0,0,1,.88-1.86,3.75,3.75,0,0,1,1.67-1.07,8.71,8.71,0,0,1,2.68-.35h.38a2.13,2.13,0,0,1,.37,0,2.37,2.37,0,0,0,.41,0,4.75,4.75,0,0,1,.51,0v-1.8a2.67,2.67,0,0,0-.38-1.47,1.5,1.5,0,0,0-1.36-.57,1.94,1.94,0,0,0-1.24.44,2.07,2.07,0,0,0-.73,1.29h-3.36a5.55,5.55,0,0,1,1.56-3.74,5,5,0,0,1,1.63-1.07,5.63,5.63,0,0,1,2.14-.39,5.9,5.9,0,0,1,2,.34,4.76,4.76,0,0,1,1.67,1,5,5,0,0,1,1.09,1.7,6.41,6.41,0,0,1,.41,2.38v12Zm0-7.41a5.47,5.47,0,0,0-1-.1,3.4,3.4,0,0,0-1.92.52,2.13,2.13,0,0,0-.8,1.92,2.52,2.52,0,0,0,.47,1.6,1.58,1.58,0,0,0,1.33.61,1.7,1.7,0,0,0,1.37-.57,2.45,2.45,0,0,0,.5-1.64Z"/><path class="cls-1" d="M166.27,230.56v-5.23h3.46v5.23h2.15v2.72h-2.15v9.56a3,3,0,0,0,.12.95.93.93,0,0,0,.39.51,1.55,1.55,0,0,0,.67.2,8.81,8.81,0,0,0,1,0v3.26h-1.43a4.65,4.65,0,0,1-2-.37,3.62,3.62,0,0,1-1.28-1,3.7,3.7,0,0,1-.69-1.3,4.8,4.8,0,0,1-.22-1.41V233.28h-1.74v-2.72Z"/><path class="cls-1" d="M172.86,247.8V230.56h3.47v1.67h.07a4.78,4.78,0,0,1,1.31-1.34,3.3,3.3,0,0,1,1.95-.53,3.11,3.11,0,0,1,1.87.54,5.82,5.82,0,0,1,1.23,1.19,7.46,7.46,0,0,1,1.42-1.22,4,4,0,0,1,2.18-.51,4.26,4.26,0,0,1,1.33.22,3.26,3.26,0,0,1,1.22.73,3.77,3.77,0,0,1,.88,1.31,4.9,4.9,0,0,1,.34,1.95V247.8h-3.46V235.87a2.28,2.28,0,0,0-.45-1.5,1.52,1.52,0,0,0-1.25-.54,1.46,1.46,0,0,0-1.36.61,3.42,3.42,0,0,0-.38,1.77V247.8h-3.47V235.87a2.27,2.27,0,0,0-.44-1.5,1.52,1.52,0,0,0-1.26-.54,1.47,1.47,0,0,0-1.36.61,3.43,3.43,0,0,0-.37,1.77V247.8Z"/><path class="cls-1" d="M199.21,247.8V246h-.07a6.29,6.29,0,0,1-1.37,1.46,3.22,3.22,0,0,1-2,.52,4.5,4.5,0,0,1-1.24-.19,3.34,3.34,0,0,1-1.21-.7,3.42,3.42,0,0,1-.93-1.38,6.33,6.33,0,0,1-.36-2.33,12.11,12.11,0,0,1,.24-2.56,4.13,4.13,0,0,1,.88-1.86,3.8,3.8,0,0,1,1.67-1.07,8.78,8.78,0,0,1,2.69-.35h.37a2.05,2.05,0,0,1,.37,0,2.46,2.46,0,0,0,.41,0,4.75,4.75,0,0,1,.51,0v-1.8a2.67,2.67,0,0,0-.37-1.47,1.5,1.5,0,0,0-1.36-.57,1.9,1.9,0,0,0-1.24.44,2,2,0,0,0-.73,1.29h-3.37a5.55,5.55,0,0,1,1.56-3.74,5,5,0,0,1,1.64-1.07,5.55,5.55,0,0,1,2.14-.39,6,6,0,0,1,2,.34,4.72,4.72,0,0,1,1.66,1,4.83,4.83,0,0,1,1.09,1.7,6.41,6.41,0,0,1,.41,2.38v12Zm0-7.41a5.38,5.38,0,0,0-1-.1,3.4,3.4,0,0,0-1.92.52,2.16,2.16,0,0,0-.8,1.92,2.52,2.52,0,0,0,.48,1.6,1.57,1.57,0,0,0,1.32.61,1.73,1.73,0,0,0,1.38-.57,2.45,2.45,0,0,0,.49-1.64Z"/><path class="cls-1" d="M204.89,254.77V230.56h3.47v1.57a8.58,8.58,0,0,1,1.32-1.26,3.27,3.27,0,0,1,2-.51,3.15,3.15,0,0,1,3,1.63,4.46,4.46,0,0,1,.44,1.43,15.07,15.07,0,0,1,.14,2.28v6.56a25.4,25.4,0,0,1-.1,2.75,3.29,3.29,0,0,1-1.57,2.55,3.57,3.57,0,0,1-2,.45,3.67,3.67,0,0,1-1.82-.46,4.26,4.26,0,0,1-1.37-1.31h-.07v8.53Zm6.9-18.6a3.08,3.08,0,0,0-.41-1.7,1.41,1.41,0,0,0-1.29-.64,1.56,1.56,0,0,0-1.26.59,2.45,2.45,0,0,0-.47,1.55v6.7a1.88,1.88,0,0,0,.49,1.34,1.63,1.63,0,0,0,1.24.53,1.4,1.4,0,0,0,1.34-.62,2.72,2.72,0,0,0,.36-1.42Z"/><path class="cls-1" d="M224,247.8V223.59H234.3v3.27h-6.87V234h6v3.27h-6v7.1h6.87v3.47Z"/><path class="cls-1" d="M236,254.77V230.56h3.47v1.57a8.58,8.58,0,0,1,1.32-1.26,3.26,3.26,0,0,1,2-.51,3.15,3.15,0,0,1,3,1.63,4.73,4.73,0,0,1,.44,1.43,15.07,15.07,0,0,1,.14,2.28v6.56c0,1.27,0,2.19-.1,2.75a3.29,3.29,0,0,1-1.57,2.55,3.57,3.57,0,0,1-2,.45,3.64,3.64,0,0,1-1.82-.46,4.39,4.39,0,0,1-1.38-1.31h-.06v8.53Zm6.9-18.6a3.17,3.17,0,0,0-.41-1.7,1.41,1.41,0,0,0-1.29-.64,1.56,1.56,0,0,0-1.26.59,2.39,2.39,0,0,0-.47,1.55v6.7A1.88,1.88,0,0,0,240,244a1.63,1.63,0,0,0,1.24.53,1.4,1.4,0,0,0,1.34-.62,2.72,2.72,0,0,0,.36-1.42Z"/><path class="cls-1" d="M248.88,227.06v-3.47h3.47v3.47Zm0,20.74V230.56h3.47V247.8Z"/><path class="cls-1" d="M261.77,247.8v-1.56c-.23.25-.44.48-.65.69a3,3,0,0,1-.68.56,3.14,3.14,0,0,1-.85.38,4.07,4.07,0,0,1-1.12.14,3.1,3.1,0,0,1-3-1.64,4.38,4.38,0,0,1-.45-1.43,15.14,15.14,0,0,1-.13-2.27V236.1a26.15,26.15,0,0,1,.1-2.75,3.31,3.31,0,0,1,1.6-2.55,4.12,4.12,0,0,1,3.75,0,4,4,0,0,1,1.38,1.31h.07v-8.54h3.47V247.8Zm-3.43-5.61a3.17,3.17,0,0,0,.4,1.7,1.44,1.44,0,0,0,1.3.65,1.5,1.5,0,0,0,1.25-.6,2.37,2.37,0,0,0,.48-1.55V235.7a1.9,1.9,0,0,0-.49-1.35,1.64,1.64,0,0,0-1.24-.52,1.43,1.43,0,0,0-1.35.61,2.86,2.86,0,0,0-.35,1.43Z"/><path class="cls-1" d="M277.78,240.49h-6.86v2.35a1.66,1.66,0,0,0,.45,1.25,1.71,1.71,0,0,0,1.25.45,1.36,1.36,0,0,0,1.3-.58,3.15,3.15,0,0,0,.4-1.16h3.46a5,5,0,0,1-3,4.8,5.44,5.44,0,0,1-2.14.41,5.28,5.28,0,0,1-2.78-.69,4.6,4.6,0,0,1-2.26-3.36,13,13,0,0,1-.13-1.94v-5.68a13,13,0,0,1,.13-1.94,4.6,4.6,0,0,1,2.26-3.36,5.38,5.38,0,0,1,2.78-.68,5.32,5.32,0,0,1,2.15.41,4.69,4.69,0,0,1,1.65,1.12,5.55,5.55,0,0,1,1.36,3.84Zm-6.86-2.72h3.4v-2a2.13,2.13,0,0,0-.46-1.48,1.83,1.83,0,0,0-2.49,0,2.13,2.13,0,0,0-.45,1.48Z"/><path class="cls-1" d="M280,247.8V230.56h3.47v1.67h.07a4.78,4.78,0,0,1,1.31-1.34,3.3,3.3,0,0,1,2-.53,3.11,3.11,0,0,1,1.87.54,5.82,5.82,0,0,1,1.23,1.19,7.22,7.22,0,0,1,1.43-1.22,3.94,3.94,0,0,1,2.17-.51,4.26,4.26,0,0,1,1.33.22,3.26,3.26,0,0,1,1.22.73,3.94,3.94,0,0,1,.89,1.31,5.08,5.08,0,0,1,.34,1.95V247.8H293.8V235.87a2.33,2.33,0,0,0-.44-1.5,1.55,1.55,0,0,0-1.26-.54,1.46,1.46,0,0,0-1.36.61,3.42,3.42,0,0,0-.38,1.77V247.8H286.9V235.87a2.28,2.28,0,0,0-.45-1.5,1.52,1.52,0,0,0-1.25-.54,1.45,1.45,0,0,0-1.36.61,3.42,3.42,0,0,0-.38,1.77V247.8Z"/><path class="cls-1" d="M299.78,227.06v-3.47h3.47v3.47Zm0,20.74V230.56h3.47V247.8Z"/><path class="cls-1" d="M305.46,236.34a13,13,0,0,1,.13-1.94,4.94,4.94,0,0,1,.51-1.56,4.68,4.68,0,0,1,1.76-1.8,6,6,0,0,1,5.54,0,4.6,4.6,0,0,1,2.26,3.36,13,13,0,0,1,.13,1.94V242a13,13,0,0,1-.13,1.94,4.6,4.6,0,0,1-2.26,3.36,5.91,5.91,0,0,1-5.54,0,4.68,4.68,0,0,1-1.76-1.8,4.85,4.85,0,0,1-.51-1.56,13,13,0,0,1-.13-1.94Zm3.47,6.22a2.08,2.08,0,0,0,.46,1.48,1.79,1.79,0,0,0,2.48,0,2.13,2.13,0,0,0,.46-1.48V235.8a2.13,2.13,0,0,0-.46-1.48,1.81,1.81,0,0,0-2.48,0,2.08,2.08,0,0,0-.46,1.48Z"/><path class="cls-1" d="M317.8,223.59h3.47v19.35a1.89,1.89,0,0,0,.36,1.34,2.21,2.21,0,0,0,1.34.46V248a11.42,11.42,0,0,1-2.14-.19,3.84,3.84,0,0,1-1.64-.73,3.17,3.17,0,0,1-1-1.45,7,7,0,0,1-.36-2.46Z"/><path class="cls-1" d="M323.68,236.34a12.91,12.91,0,0,1,.14-1.94,4.6,4.6,0,0,1,2.26-3.36,6,6,0,0,1,5.54,0,4.6,4.6,0,0,1,2.26,3.36,12.91,12.91,0,0,1,.14,1.94V242a12.91,12.91,0,0,1-.14,1.94,4.6,4.6,0,0,1-2.26,3.36,5.91,5.91,0,0,1-5.54,0,4.6,4.6,0,0,1-2.26-3.36,12.91,12.91,0,0,1-.14-1.94Zm3.47,6.22a2.08,2.08,0,0,0,.46,1.48,1.79,1.79,0,0,0,2.48,0,2.08,2.08,0,0,0,.46-1.48V235.8a2.08,2.08,0,0,0-.46-1.48,1.81,1.81,0,0,0-2.48,0,2.08,2.08,0,0,0-.46,1.48Z"/><path class="cls-1" d="M339.7,249.81a1.89,1.89,0,0,0,.49,1.15,1.62,1.62,0,0,0,1.34.55,1.41,1.41,0,0,0,1.23-.53,2.33,2.33,0,0,0,.37-1.34v-3.4h-.07a4.19,4.19,0,0,1-1.38,1.31,3.7,3.7,0,0,1-1.85.46,3.1,3.1,0,0,1-3-1.64,4.38,4.38,0,0,1-.45-1.43,15.14,15.14,0,0,1-.13-2.27V236.1a26.15,26.15,0,0,1,.1-2.75,3.31,3.31,0,0,1,1.6-2.55,3.48,3.48,0,0,1,1.94-.44,4,4,0,0,1,1.1.13,3.51,3.51,0,0,1,.83.38,3.33,3.33,0,0,1,.68.56l.65.7v-1.57h3.47v19.35a5.86,5.86,0,0,1-.29,1.78,4.42,4.42,0,0,1-.94,1.62,4.79,4.79,0,0,1-1.63,1.21,5.61,5.61,0,0,1-2.34.45,5.69,5.69,0,0,1-1.64-.25,4.32,4.32,0,0,1-1.56-.87,4.92,4.92,0,0,1-1.28-1.54,6.81,6.81,0,0,1-.69-2.5Zm0-7.31a2.72,2.72,0,0,0,.35,1.42,1.43,1.43,0,0,0,1.35.62,1.65,1.65,0,0,0,1.24-.53,1.88,1.88,0,0,0,.49-1.34V236a2.39,2.39,0,0,0-.48-1.55,1.52,1.52,0,0,0-1.25-.59,1.43,1.43,0,0,0-1.3.64,3.17,3.17,0,0,0-.4,1.7Z"/><path class="cls-1" d="M347.65,230.56h3.67l2.38,10.75h.07l2.35-10.75h3.57l-5,20.23a5.9,5.9,0,0,1-.76,1.91,4.78,4.78,0,0,1-1.14,1.22,3.82,3.82,0,0,1-1.38.66,5.84,5.84,0,0,1-1.51.19H349v-3.26h.78a2.58,2.58,0,0,0,.88-.14,1.39,1.39,0,0,0,.68-.61,6.3,6.3,0,0,0,.51-1.34c.16-.58.34-1.38.55-2.4Z"/><path class="cls-1" d="M369.21,247.8V226.86h-4v-3.27h11.5v3.27h-4V247.8Z"/><path class="cls-1" d="M375.26,236.34a13,13,0,0,1,.13-1.94,4.94,4.94,0,0,1,.51-1.56,4.68,4.68,0,0,1,1.76-1.8,6,6,0,0,1,5.54,0,4.6,4.6,0,0,1,2.26,3.36,13,13,0,0,1,.13,1.94V242a13,13,0,0,1-.13,1.94,4.6,4.6,0,0,1-2.26,3.36,5.91,5.91,0,0,1-5.54,0,4.68,4.68,0,0,1-1.76-1.8,4.85,4.85,0,0,1-.51-1.56,13,13,0,0,1-.13-1.94Zm3.47,6.22a2.08,2.08,0,0,0,.46,1.48,1.79,1.79,0,0,0,2.48,0,2.13,2.13,0,0,0,.46-1.48V235.8a2.13,2.13,0,0,0-.46-1.48,1.81,1.81,0,0,0-2.48,0,2.08,2.08,0,0,0-.46,1.48Z"/><path class="cls-1" d="M387.5,236.34a13,13,0,0,1,.13-1.94,4.94,4.94,0,0,1,.51-1.56,4.68,4.68,0,0,1,1.76-1.8,6,6,0,0,1,5.54,0,4.6,4.6,0,0,1,2.26,3.36,13,13,0,0,1,.13,1.94V242a13,13,0,0,1-.13,1.94,4.6,4.6,0,0,1-2.26,3.36,5.91,5.91,0,0,1-5.54,0,4.68,4.68,0,0,1-1.76-1.8,4.85,4.85,0,0,1-.51-1.56,13,13,0,0,1-.13-1.94Zm3.47,6.22a2.08,2.08,0,0,0,.46,1.48,1.79,1.79,0,0,0,2.48,0,2.13,2.13,0,0,0,.46-1.48V235.8a2.13,2.13,0,0,0-.46-1.48,1.81,1.81,0,0,0-2.48,0,2.08,2.08,0,0,0-.46,1.48Z"/><path class="cls-1" d="M399.84,223.59h3.47v19.35a1.89,1.89,0,0,0,.36,1.34,2.21,2.21,0,0,0,1.34.46V248a11.42,11.42,0,0,1-2.14-.19,3.84,3.84,0,0,1-1.64-.73,3.17,3.17,0,0,1-1-1.45,7,7,0,0,1-.36-2.46Z"/></svg>