<svg id="Layer_1" data-name="Layer 1" xmlns="http://www.w3.org/2000/svg" xmlns:xlink="http://www.w3.org/1999/xlink" viewBox="0 0 925.79 264"><defs><style>.cls-1{fill:#fff;}.cls-2{fill:url(#linear-gradient);}</style><linearGradient id="linear-gradient" x1="218" y1="203.2" x2="218" y2="60.8" gradientUnits="userSpaceOnUse"><stop offset="0" stop-color="#2821ff"/><stop offset="0.07" stop-color="#2b21ff"/><stop offset="0.12" stop-color="#3420fd"/><stop offset="0.16" stop-color="#441ffb"/><stop offset="0.2" stop-color="#5a1ef8"/><stop offset="0.23" stop-color="#771df5"/><stop offset="0.27" stop-color="#9a1bf0"/><stop offset="0.3" stop-color="#c318eb"/><stop offset="0.32" stop-color="#d917e8"/><stop offset="0.34" stop-color="#dc1adb"/><stop offset="0.38" stop-color="#e223b9"/><stop offset="0.44" stop-color="#ed3181"/><stop offset="0.5" stop-color="#fc4335"/><stop offset="0.51" stop-color="#ff4726"/><stop offset="0.65" stop-color="#f07d1c"/><stop offset="0.72" stop-color="#e89817"/><stop offset="0.76" stop-color="#efa810"/><stop offset="0.84" stop-color="#f8bc07"/><stop offset="0.92" stop-color="#fdc702"/><stop offset="1" stop-color="#ffcb00"/></linearGradient></defs><path class="cls-1" d="M173,60.8,151.8,203.2H132.6L117,110.8h-.4l-15.4,92.4H82L60.8,60.8H82.4l10.2,90.4H93l16-90.4h15.6l16.6,92.6h.4l9.8-92.6Z"/><path class="cls-2" d="M185,203.2V60.8h20.4v61h25.2v-61H251V203.2H230.6V139.8H205.4v63.4Z"/><path class="cls-1" d="M269.4,203.2V60.8h60.8V80H289.8v41.8H325V141H289.8v41.8h40.4v20.4Z"/><path class="cls-1" d="M362.6,203.2V80H339V60.8h67.6V80H383V203.2Z"/><path class="cls-1" d="M510.09,60.8l-7.84,52.69h-7.11L489.37,79.3h-.15l-5.69,34.19h-7.11L468.58,60.8h8l3.77,33.45h.15l5.92-33.45h5.77l6.15,34.26h.14L502.1,60.8Z"/><path class="cls-1" d="M511.65,88.55a27.52,27.52,0,0,1,.29-4.22,10.31,10.31,0,0,1,1.11-3.4A10.17,10.17,0,0,1,516.86,77a13,13,0,0,1,12.06,0,10.12,10.12,0,0,1,3.82,3.92,10.31,10.31,0,0,1,1.11,3.4,28.84,28.84,0,0,1,.29,4.22v12.36a28.94,28.94,0,0,1-.29,4.22,10.38,10.38,0,0,1-1.11,3.4,10.19,10.19,0,0,1-3.82,3.92,13,13,0,0,1-12.06,0,10.24,10.24,0,0,1-3.81-3.92,10.38,10.38,0,0,1-1.11-3.4,27.61,27.61,0,0,1-.29-4.22Zm7.54,13.54a4.6,4.6,0,0,0,1,3.22,3.94,3.94,0,0,0,5.4,0,4.55,4.55,0,0,0,1-3.22V87.37a4.54,4.54,0,0,0-1-3.22,3.92,3.92,0,0,0-5.4,0,4.58,4.58,0,0,0-1,3.22Z"/><path class="cls-1" d="M539,113.49V76h7.55v4A22.61,22.61,0,0,1,551,76.71a11.54,11.54,0,0,1,5.48-1.18v8a6.07,6.07,0,0,0-2.29-.45,9.08,9.08,0,0,0-2.56.41,6.67,6.67,0,0,0-2.48,1.37,7,7,0,0,0-1.92,2.52,8.91,8.91,0,0,0-.74,3.84v22.28Z"/><path class="cls-1" d="M558.34,60.8h7.55v42.11a4.14,4.14,0,0,0,.78,2.92,4.87,4.87,0,0,0,2.92,1v7.1a24.34,24.34,0,0,1-4.66-.41,8,8,0,0,1-3.55-1.59,6.84,6.84,0,0,1-2.26-3.14,15.32,15.32,0,0,1-.78-5.37Z"/><path class="cls-1" d="M586.83,113.49v-3.41c-.49.55-1,1-1.41,1.52a7.23,7.23,0,0,1-1.48,1.22,6.93,6.93,0,0,1-1.85.82,9.22,9.22,0,0,1-2.44.29q-4.74,0-6.58-3.55a10,10,0,0,1-1-3.11,33.88,33.88,0,0,1-.29-5V88a57.34,57.34,0,0,1,.22-6,7.13,7.13,0,0,1,3.48-5.55,7.5,7.5,0,0,1,4.22-1,7.87,7.87,0,0,1,4,1,9.29,9.29,0,0,1,3,2.85h.15V60.8h7.55v52.69Zm-7.47-12.21a6.87,6.87,0,0,0,.88,3.7,3.11,3.11,0,0,0,2.82,1.4,3.33,3.33,0,0,0,2.73-1.29,5.24,5.24,0,0,0,1-3.37V87.14a4.14,4.14,0,0,0-1.07-2.92,3.57,3.57,0,0,0-2.7-1.15,3.11,3.11,0,0,0-2.93,1.34,6.09,6.09,0,0,0-.77,3.1Z"/><path class="cls-1" d="M613.32,113.49V60.8h7.55V83.37h9.32V60.8h7.55v52.69h-7.55V90h-9.32v23.46Z"/><path class="cls-1" d="M665.49,97.58h-15v5.1a3.64,3.64,0,0,0,1,2.74,3.75,3.75,0,0,0,2.7,1,3,3,0,0,0,2.85-1.25,6.78,6.78,0,0,0,.85-2.52h7.55a10.81,10.81,0,0,1-3,8A10.51,10.51,0,0,1,658.9,113a12.86,12.86,0,0,1-10.69-.59,10.24,10.24,0,0,1-3.81-3.92,10.38,10.38,0,0,1-1.11-3.4,27.61,27.61,0,0,1-.29-4.22V88.55a27.52,27.52,0,0,1,.29-4.22,10.31,10.31,0,0,1,1.11-3.4A10.17,10.17,0,0,1,648.21,77a11.54,11.54,0,0,1,6-1.48,12,12,0,0,1,4.7.88,10.6,10.6,0,0,1,3.59,2.45,12.11,12.11,0,0,1,3,8.36Zm-15-5.92h7.4V87.37a4.54,4.54,0,0,0-1-3.22,3.91,3.91,0,0,0-5.4,0,4.58,4.58,0,0,0-1,3.22Z"/><path class="cls-1" d="M684.58,113.49v-3.85h-.15a13.8,13.8,0,0,1-3,3.18,7.1,7.1,0,0,1-4.26,1.11,9.47,9.47,0,0,1-2.7-.41,7,7,0,0,1-2.63-1.51,7.22,7.22,0,0,1-2-3,13.92,13.92,0,0,1-.78-5.07,26.52,26.52,0,0,1,.52-5.59,9.07,9.07,0,0,1,1.92-4A8,8,0,0,1,675.11,92a18.48,18.48,0,0,1,5.85-.78h.81a4,4,0,0,1,.81.08,4.66,4.66,0,0,0,.89.07,8.79,8.79,0,0,1,1.11.08V87.51a5.77,5.77,0,0,0-.81-3.18,3.26,3.26,0,0,0-3-1.26,4.25,4.25,0,0,0-2.7,1,4.53,4.53,0,0,0-1.59,2.82h-7.33a12.07,12.07,0,0,1,3.4-8.14,10.53,10.53,0,0,1,3.56-2.33,12.09,12.09,0,0,1,4.66-.85,13.17,13.17,0,0,1,4.44.73,10.14,10.14,0,0,1,3.62,2.23,10.62,10.62,0,0,1,2.37,3.7,13.91,13.91,0,0,1,.89,5.18v26.12Zm0-16.13a12.33,12.33,0,0,0-2.07-.23,7.45,7.45,0,0,0-4.18,1.15c-1.16.77-1.74,2.16-1.74,4.18a5.46,5.46,0,0,0,1,3.48,3.43,3.43,0,0,0,2.88,1.33,3.73,3.73,0,0,0,3-1.26,5.34,5.34,0,0,0,1.07-3.55Z"/><path class="cls-1" d="M696.94,76V64.57h7.55V76h4.66v5.92h-4.66v20.79a6.39,6.39,0,0,0,.26,2.08,2,2,0,0,0,.85,1.11,3.26,3.26,0,0,0,1.44.44c.57,0,1.27.07,2.11.07v7.11H706a10.08,10.08,0,0,1-4.33-.82,7.73,7.73,0,0,1-2.77-2.07,8.17,8.17,0,0,1-1.52-2.85,10.59,10.59,0,0,1-.48-3.07V81.89h-3.77V76Z"/><path class="cls-1" d="M711.3,113.49V76h7.54v3.62H719a10.86,10.86,0,0,1,2.85-2.92,7.38,7.38,0,0,1,4.26-1.14,6.76,6.76,0,0,1,4.07,1.18,12.16,12.16,0,0,1,2.66,2.59,15.66,15.66,0,0,1,3.11-2.66,8.6,8.6,0,0,1,4.73-1.11,9.36,9.36,0,0,1,2.89.48,7,7,0,0,1,2.66,1.59,8.38,8.38,0,0,1,1.93,2.85,10.89,10.89,0,0,1,.74,4.25v28.79h-7.55v-26a5,5,0,0,0-1-3.25,3.34,3.34,0,0,0-2.74-1.19,3.18,3.18,0,0,0-3,1.34,7.44,7.44,0,0,0-.81,3.84v25.24h-7.55v-26a5,5,0,0,0-1-3.25,3.35,3.35,0,0,0-2.74-1.19,3.18,3.18,0,0,0-3,1.34,7.33,7.33,0,0,0-.82,3.84v25.24Z"/><path class="cls-1" d="M768.65,113.49v-3.85h-.15a14,14,0,0,1-3,3.18,7.09,7.09,0,0,1-4.25,1.11,9.47,9.47,0,0,1-2.7-.41,6.92,6.92,0,0,1-2.63-1.51,7.24,7.24,0,0,1-2-3,14.16,14.16,0,0,1-.77-5.07,27.25,27.25,0,0,1,.51-5.59,9,9,0,0,1,1.93-4A8,8,0,0,1,759.17,92a18.48,18.48,0,0,1,5.85-.78h.81a4.15,4.15,0,0,1,.82.08,4.52,4.52,0,0,0,.89.07,9.05,9.05,0,0,1,1.11.08V87.51a5.78,5.78,0,0,0-.82-3.18,3.25,3.25,0,0,0-3-1.26,4.25,4.25,0,0,0-2.7,1,4.63,4.63,0,0,0-1.59,2.82h-7.33a12.08,12.08,0,0,1,3.41-8.14,10.49,10.49,0,0,1,3.55-2.33,12.09,12.09,0,0,1,4.66-.85,13.17,13.17,0,0,1,4.44.73,10.27,10.27,0,0,1,3.63,2.23,10.91,10.91,0,0,1,2.37,3.7,13.91,13.91,0,0,1,.88,5.18v26.12Zm0-16.13a12.33,12.33,0,0,0-2.08-.23,7.48,7.48,0,0,0-4.18,1.15c-1.16.77-1.74,2.16-1.74,4.18a5.52,5.52,0,0,0,1,3.48,3.44,3.44,0,0,0,2.89,1.33,3.71,3.71,0,0,0,3-1.26,5.29,5.29,0,0,0,1.08-3.55Z"/><path class="cls-1" d="M781,128.66V76h7.55v3.4a18.74,18.74,0,0,1,2.89-2.73,7,7,0,0,1,4.29-1.11c3.11,0,5.3,1.18,6.59,3.55a10.18,10.18,0,0,1,1,3.11,33.83,33.83,0,0,1,.29,5v14.29a56.05,56.05,0,0,1-.22,6A7.18,7.18,0,0,1,800,113a7.93,7.93,0,0,1-4.29,1,7.77,7.77,0,0,1-4-1,9,9,0,0,1-3-2.85h-.15v18.58Zm15-40.48a6.87,6.87,0,0,0-.89-3.7,3.08,3.08,0,0,0-2.81-1.41,3.34,3.34,0,0,0-2.74,1.3,5.22,5.22,0,0,0-1,3.37v14.57a4.15,4.15,0,0,0,1.07,2.93,3.57,3.57,0,0,0,2.71,1.14,3.08,3.08,0,0,0,2.92-1.33,6,6,0,0,0,.78-3.11Z"/><path class="cls-1" d="M471,202.29V149.6h22.49v7.1H478.49v15.47h13v7.1h-13v15.47h14.95v7.55Z"/><path class="cls-1" d="M497.14,217.46V164.77h7.55v3.4a19.33,19.33,0,0,1,2.89-2.74,7.11,7.11,0,0,1,4.29-1.11q4.67,0,6.58,3.56a9.91,9.91,0,0,1,1,3.11,33.83,33.83,0,0,1,.29,4.95v14.28a56.14,56.14,0,0,1-.22,6,7.2,7.2,0,0,1-3.4,5.55,7.94,7.94,0,0,1-4.3,1,7.71,7.71,0,0,1-4-1,9,9,0,0,1-3-2.85h-.15v18.58Zm15-40.48a6.87,6.87,0,0,0-.88-3.7,3.09,3.09,0,0,0-2.82-1.41,3.34,3.34,0,0,0-2.73,1.3,5.21,5.21,0,0,0-1,3.36v14.58a4.15,4.15,0,0,0,1.07,2.93,3.57,3.57,0,0,0,2.7,1.14,3.1,3.1,0,0,0,2.93-1.33,6,6,0,0,0,.77-3.11Z"/><path class="cls-1" d="M525.19,157.15V149.6h7.55v7.55Zm0,45.14V164.77h7.55v37.52Z"/><path class="cls-1" d="M553.23,202.29v-3.41c-.49.55-1,1.05-1.4,1.52a7.81,7.81,0,0,1-1.48,1.22,6.74,6.74,0,0,1-1.85.81,8.85,8.85,0,0,1-2.44.3q-4.74,0-6.59-3.55a10,10,0,0,1-1-3.11,32.41,32.41,0,0,1-.3-5V176.83c0-2.71.08-4.71.22-6a7.16,7.16,0,0,1,3.48-5.55,7.52,7.52,0,0,1,4.22-1,7.87,7.87,0,0,1,4,1,9.22,9.22,0,0,1,3,2.85h.14V149.6h7.55v52.69Zm-7.47-12.21a6.87,6.87,0,0,0,.89,3.7,3.09,3.09,0,0,0,2.81,1.4,3.35,3.35,0,0,0,2.74-1.29,5.23,5.23,0,0,0,1-3.37V175.94a4.09,4.09,0,0,0-1.07-2.92,3.57,3.57,0,0,0-2.7-1.15,3.09,3.09,0,0,0-2.92,1.33,6.06,6.06,0,0,0-.78,3.11Z"/><path class="cls-1" d="M588.09,186.38h-15v5.1a3.6,3.6,0,0,0,1,2.74,3.71,3.71,0,0,0,2.7,1,3,3,0,0,0,2.85-1.25,6.78,6.78,0,0,0,.85-2.52h7.55a10.78,10.78,0,0,1-3,8,10.46,10.46,0,0,1-3.55,2.44,11.77,11.77,0,0,1-4.66.89,11.52,11.52,0,0,1-6-1.48,10.09,10.09,0,0,1-3.81-3.92,9.93,9.93,0,0,1-1.11-3.4,27.55,27.55,0,0,1-.3-4.22V177.35a27.46,27.46,0,0,1,.3-4.22,9.86,9.86,0,0,1,1.11-3.4,10.12,10.12,0,0,1,3.81-3.93,11.61,11.61,0,0,1,6-1.48,12.08,12.08,0,0,1,4.7.89,10.56,10.56,0,0,1,3.59,2.45,12.11,12.11,0,0,1,3,8.36Zm-15-5.92h7.4v-4.3a4.52,4.52,0,0,0-1-3.21,3.91,3.91,0,0,0-5.4,0,4.52,4.52,0,0,0-1,3.21Z"/><path class="cls-1" d="M592.9,202.29V164.77h7.54v3.62h.15a10.86,10.86,0,0,1,2.85-2.92,7.38,7.38,0,0,1,4.26-1.15,6.76,6.76,0,0,1,4.07,1.19,12.16,12.16,0,0,1,2.66,2.59,16.05,16.05,0,0,1,3.11-2.67,8.68,8.68,0,0,1,4.73-1.11,9.38,9.38,0,0,1,2.89.49,7,7,0,0,1,2.66,1.59,8.38,8.38,0,0,1,1.93,2.85,10.89,10.89,0,0,1,.74,4.25v28.79h-7.55v-26a5,5,0,0,0-1-3.25,3.34,3.34,0,0,0-2.74-1.19,3.2,3.2,0,0,0-3,1.33,7.51,7.51,0,0,0-.81,3.85v25.24h-7.55v-26a5,5,0,0,0-1-3.25,3.35,3.35,0,0,0-2.74-1.19,3.2,3.2,0,0,0-3,1.33,7.4,7.4,0,0,0-.82,3.85v25.24Z"/><path class="cls-1" d="M636,157.15V149.6h7.55v7.55Zm0,45.14V164.77h7.55v37.52Z"/><path class="cls-1" d="M648.32,177.35a27.46,27.46,0,0,1,.3-4.22,9.86,9.86,0,0,1,1.11-3.4,10.26,10.26,0,0,1,3.81-3.93,13,13,0,0,1,12.06,0,10.06,10.06,0,0,1,4.92,7.33,27.46,27.46,0,0,1,.3,4.22v12.36a27.55,27.55,0,0,1-.3,4.22,10.38,10.38,0,0,1-1.11,3.4,10.24,10.24,0,0,1-3.81,3.92,13,13,0,0,1-12.06,0,10.24,10.24,0,0,1-3.81-3.92,9.93,9.93,0,0,1-1.11-3.4,27.55,27.55,0,0,1-.3-4.22Zm7.55,13.54a4.55,4.55,0,0,0,1,3.22,3.94,3.94,0,0,0,5.4,0,4.55,4.55,0,0,0,1-3.22V176.16a4.52,4.52,0,0,0-1-3.21,3.91,3.91,0,0,0-5.4,0,4.52,4.52,0,0,0-1,3.21Z"/><path class="cls-1" d="M675.18,149.6h7.55v42.1a4.15,4.15,0,0,0,.78,2.93,4.89,4.89,0,0,0,2.92,1v7.1a24.34,24.34,0,0,1-4.66-.41,8,8,0,0,1-3.55-1.59,6.84,6.84,0,0,1-2.26-3.14,15.32,15.32,0,0,1-.78-5.37Z"/><path class="cls-1" d="M688,177.35a27.52,27.52,0,0,1,.29-4.22,10.06,10.06,0,0,1,4.92-7.33,13,13,0,0,1,12.06,0,10.22,10.22,0,0,1,3.82,3.93,10.07,10.07,0,0,1,1.1,3.4,27.46,27.46,0,0,1,.3,4.22v12.36a27.55,27.55,0,0,1-.3,4.22,9.94,9.94,0,0,1-4.92,7.32,13,13,0,0,1-12.06,0,10.24,10.24,0,0,1-3.81-3.92,10.38,10.38,0,0,1-1.11-3.4,27.61,27.61,0,0,1-.29-4.22Zm7.54,13.54a4.6,4.6,0,0,0,1,3.22,3.94,3.94,0,0,0,5.4,0,4.55,4.55,0,0,0,1-3.22V176.16a4.52,4.52,0,0,0-1-3.21,3.91,3.91,0,0,0-5.4,0,4.57,4.57,0,0,0-1,3.21Z"/><path class="cls-1" d="M722.84,206.65a4.27,4.27,0,0,0,1.07,2.52,3.62,3.62,0,0,0,2.93,1.18,3,3,0,0,0,2.66-1.14,5,5,0,0,0,.81-2.93v-7.4h-.14a9,9,0,0,1-3,2.85,7.94,7.94,0,0,1-4,1c-3.15,0-5.35-1.18-6.58-3.55a9.74,9.74,0,0,1-1-3.11,32.41,32.41,0,0,1-.3-5V176.83a57.34,57.34,0,0,1,.22-6,7.16,7.16,0,0,1,3.48-5.55,7.52,7.52,0,0,1,4.22-1,8.36,8.36,0,0,1,2.4.3,7.52,7.52,0,0,1,1.82.81,8.27,8.27,0,0,1,1.48,1.23c.44.47.91,1,1.4,1.51v-3.4h7.55v42.1a12.66,12.66,0,0,1-.63,3.89,9.53,9.53,0,0,1-2,3.51,10.27,10.27,0,0,1-3.56,2.63,11.93,11.93,0,0,1-5.1,1,12.28,12.28,0,0,1-3.55-.55,9.28,9.28,0,0,1-3.41-1.89,10.51,10.51,0,0,1-2.77-3.37,14.77,14.77,0,0,1-1.52-5.44Zm0-15.91a6,6,0,0,0,.78,3.11,3.07,3.07,0,0,0,2.92,1.33,3.57,3.57,0,0,0,2.7-1.14,4.15,4.15,0,0,0,1.07-2.93V176.53a5.2,5.2,0,0,0-1-3.36,3.36,3.36,0,0,0-2.74-1.3,3.07,3.07,0,0,0-2.81,1.41,6.78,6.78,0,0,0-.89,3.7Z"/><path class="cls-1" d="M740.15,164.77h8l5.18,23.38h.14l5.11-23.38h7.77l-10.8,44a12.77,12.77,0,0,1-1.67,4.14,10.12,10.12,0,0,1-2.48,2.67,8.61,8.61,0,0,1-3,1.44,13.38,13.38,0,0,1-3.3.41H743v-7.11h1.7a5.89,5.89,0,0,0,1.93-.29,3.13,3.13,0,0,0,1.48-1.34,13.39,13.39,0,0,0,1.11-2.92c.34-1.26.74-3,1.18-5.22Z"/><path class="cls-1" d="M787.07,202.29V156.7h-8.73v-7.1h25v7.1h-8.73v45.59Z"/><path class="cls-1" d="M800.24,177.35a27.46,27.46,0,0,1,.3-4.22,9.86,9.86,0,0,1,1.11-3.4,10.12,10.12,0,0,1,3.81-3.93,13,13,0,0,1,12.06,0,10.06,10.06,0,0,1,4.92,7.33,27.46,27.46,0,0,1,.3,4.22v12.36a27.55,27.55,0,0,1-.3,4.22,10.38,10.38,0,0,1-1.11,3.4,10.24,10.24,0,0,1-3.81,3.92,13,13,0,0,1-12.06,0,10.09,10.09,0,0,1-3.81-3.92,9.93,9.93,0,0,1-1.11-3.4,27.55,27.55,0,0,1-.3-4.22Zm7.55,13.54a4.55,4.55,0,0,0,1,3.22,3.94,3.94,0,0,0,5.4,0,4.6,4.6,0,0,0,1-3.22V176.16a4.57,4.57,0,0,0-1-3.21,3.91,3.91,0,0,0-5.4,0,4.52,4.52,0,0,0-1,3.21Z"/><path class="cls-1" d="M826.88,177.35a27.46,27.46,0,0,1,.3-4.22,9.86,9.86,0,0,1,1.11-3.4,10.12,10.12,0,0,1,3.81-3.93,13,13,0,0,1,12.06,0,10.06,10.06,0,0,1,4.92,7.33,27.46,27.46,0,0,1,.3,4.22v12.36a27.55,27.55,0,0,1-.3,4.22,10.38,10.38,0,0,1-1.11,3.4,10.24,10.24,0,0,1-3.81,3.92,13,13,0,0,1-12.06,0,10.09,10.09,0,0,1-3.81-3.92,9.93,9.93,0,0,1-1.11-3.4,27.55,27.55,0,0,1-.3-4.22Zm7.55,13.54a4.55,4.55,0,0,0,1,3.22,3.94,3.94,0,0,0,5.4,0,4.55,4.55,0,0,0,1-3.22V176.16a4.52,4.52,0,0,0-1-3.21,3.91,3.91,0,0,0-5.4,0,4.52,4.52,0,0,0-1,3.21Z"/><path class="cls-1" d="M853.74,149.6h7.55v42.1a4.15,4.15,0,0,0,.78,2.93,4.89,4.89,0,0,0,2.92,1v7.1a24.34,24.34,0,0,1-4.66-.41,8,8,0,0,1-3.55-1.59,6.84,6.84,0,0,1-2.26-3.14,15.32,15.32,0,0,1-.78-5.37Z"/></svg>